Hanif_Shallow_5_0_grf.mot
version=1
nRows=37
nColumns=19
inDegrees=yes
endheader
time	right_ground_force_vx	right_ground_force_vy	right_ground_force_vz	right_ground_force_px	right_ground_force_py	right_ground_force_pz	right_ground_torque_x	right_ground_torque_y	right_ground_torque_z	left_ground_force_vx	left_ground_force_vy	left_ground_force_vz	left_ground_force_px	left_ground_force_py	left_ground_force_pz	left_ground_torque_x	left_ground_torque_y	left_ground_torque_z
0.700000	-5.935310	249.434000	45.873000	0.233644	0.000000	-1.413650	-23.030300	-2.314870	8.350920	4.195830	280.271000	-49.971900	0.232007	0.000000	-0.987957	23.769300	-1.546280	9.467870
0.705000	-6.435790	246.610000	44.792500	0.234383	0.000000	-1.413980	-22.687900	-2.347920	8.440090	3.866180	277.865000	-50.549500	0.232033	0.000000	-0.986583	23.182800	-1.727940	9.450940
0.710000	-6.959390	244.494000	44.950000	0.235119	0.000000	-1.413270	-22.668000	-2.374840	8.558760	3.139310	273.269000	-50.731000	0.231467	0.000000	-0.987520	23.060900	-1.780830	9.176620
0.715000	-7.132180	244.636000	45.306400	0.235384	0.000000	-1.412670	-22.828700	-2.396100	8.632730	3.495930	271.172000	-51.439100	0.231071	0.000000	-0.986550	22.614300	-1.952460	9.043780
0.720000	-7.272590	243.119000	45.545400	0.236462	0.000000	-1.412560	-22.712100	-2.475190	8.839370	4.549980	271.160000	-52.042600	0.230594	0.000000	-0.986118	22.482500	-2.111110	8.934010
0.725000	-7.231600	241.079000	45.001200	0.235930	0.000000	-1.412710	-22.488300	-2.377860	8.645880	5.288180	274.324000	-53.461300	0.230232	0.000000	-0.985950	22.688800	-2.271480	8.965410
0.730000	-7.598280	235.649000	44.006100	0.236184	0.000000	-1.412720	-21.977600	-2.386370	8.510710	5.281810	272.531000	-53.777300	0.230137	0.000000	-0.986038	22.558600	-2.527070	8.945130
0.735000	-8.092490	229.397000	43.476900	0.236403	0.000000	-1.412290	-21.494100	-2.405990	8.338360	5.580540	273.795000	-53.939700	0.229538	0.000000	-0.984702	22.294400	-2.556920	8.815270
0.740000	-8.630110	226.861000	42.715200	0.236762	0.000000	-1.412710	-21.159500	-2.509830	8.314620	5.652800	271.960000	-53.877500	0.229130	0.000000	-0.985816	22.443900	-2.687570	8.672840
0.745000	-9.127130	222.225000	42.472800	0.236977	0.000000	-1.411510	-20.993500	-2.556700	8.193590	5.464350	273.106000	-54.140300	0.229486	0.000000	-0.985228	22.378200	-2.796280	8.834540
0.750000	-10.285200	223.539000	42.289700	0.236690	0.000000	-1.410470	-21.347100	-2.688780	8.172460	4.834840	273.679000	-53.704500	0.229792	0.000000	-0.985371	22.471700	-2.842110	8.946920
0.755000	-10.173700	222.532000	42.060600	0.236219	0.000000	-1.411850	-20.944400	-2.641220	8.029650	4.782680	271.663000	-53.670600	0.229658	0.000000	-0.985592	22.364700	-2.919220	8.870300
0.760000	-10.106200	219.554000	41.597700	0.236516	0.000000	-1.412150	-20.595900	-2.669510	7.978980	4.615530	270.923000	-53.605900	0.228826	0.000000	-0.985018	22.149700	-2.985970	8.631330
0.765000	-9.829650	218.207000	41.150400	0.236037	0.000000	-1.412840	-20.319200	-2.594490	7.826690	4.683800	271.797000	-53.327000	0.228848	0.000000	-0.985382	22.320300	-2.960000	8.647790
0.770000	-9.555660	215.775000	40.255000	0.236111	0.000000	-1.412530	-20.158200	-2.578100	7.748800	4.521240	272.615000	-53.820300	0.228965	0.000000	-0.984913	22.259800	-3.093500	8.741750
0.775000	-10.012200	213.537000	40.126100	0.235909	0.000000	-1.412110	-20.036000	-2.640410	7.619180	4.180710	272.084000	-53.225900	0.227896	0.000000	-0.984343	22.065100	-3.223120	8.444390
0.780000	-10.626200	212.539000	39.494700	0.235798	0.000000	-1.411900	-19.985000	-2.691940	7.556810	3.714120	270.792000	-52.795400	0.227518	0.000000	-0.984391	21.980400	-3.190140	8.298050
0.785000	-11.435200	215.114000	38.823300	0.235304	0.000000	-1.412300	-20.143400	-2.702320	7.547370	3.348690	269.191000	-52.793200	0.227197	0.000000	-0.984247	21.815300	-3.301040	8.196720
0.790000	-11.607800	216.571000	39.407100	0.235806	0.000000	-1.411640	-20.416400	-2.846360	7.692610	4.221790	270.473000	-53.288000	0.226836	0.000000	-0.984666	22.018000	-3.423780	8.146790
0.795000	-12.194400	220.089000	39.068200	0.235261	0.000000	-1.411630	-20.756900	-2.762440	7.719050	4.408180	274.656000	-54.174100	0.226991	0.000000	-0.983801	22.117300	-3.570380	8.335560
0.800000	-12.272600	222.844000	40.108000	0.235368	0.000000	-1.409970	-21.385500	-2.851690	7.835720	4.501480	277.969000	-55.014500	0.226271	0.000000	-0.983862	22.399700	-3.706810	8.250040
0.805000	-12.777200	229.036000	40.755200	0.236317	0.000000	-1.410820	-21.791100	-2.840880	8.292260	4.694740	282.269000	-56.098200	0.227061	0.000000	-0.983629	22.676800	-3.813080	8.622860
0.810000	-12.661100	236.433000	41.529100	0.235879	0.000000	-1.411910	-22.232700	-2.927420	8.439670	4.626940	289.300000	-57.681100	0.226637	0.000000	-0.984106	23.384600	-3.805610	8.696500
0.815000	-13.214000	242.214000	42.191600	0.236010	0.000000	-1.411530	-22.870800	-2.972450	8.686460	4.299680	292.784000	-58.775200	0.227202	0.000000	-0.984823	23.882300	-3.807490	8.978990
0.820000	-13.908200	244.706000	42.652900	0.234679	0.000000	-1.412070	-22.974400	-2.971610	8.453650	3.947940	298.777000	-60.025000	0.226966	0.000000	-0.984419	24.258100	-3.857250	9.092230
0.825000	-13.754700	249.678000	43.165800	0.235161	0.000000	-1.412740	-23.273800	-3.024160	8.740330	2.168120	301.789000	-60.935800	0.226536	0.000000	-0.983470	24.246500	-3.915290	9.089990
0.830000	-13.701500	253.901000	44.247200	0.235054	0.000000	-1.412670	-23.685800	-3.031880	8.865040	1.242890	305.971000	-61.135900	0.227089	0.000000	-0.984347	24.867600	-3.889190	9.376340
0.835000	-13.936700	260.683000	46.121600	0.234389	0.000000	-1.412540	-24.356300	-3.001480	8.944530	-0.051554	313.251000	-62.062600	0.226578	0.000000	-0.983813	25.315700	-3.953520	9.436570
0.840000	-13.915000	267.611000	47.514300	0.234651	0.000000	-1.413980	-24.624100	-2.942470	9.270320	-0.872487	318.067000	-62.365600	0.227113	0.000000	-0.984757	26.020000	-4.014190	9.756360
0.845000	-13.055000	272.672000	48.563400	0.233135	0.000000	-1.413710	-25.162100	-2.895800	9.020370	-1.873750	321.508000	-63.120000	0.226720	0.000000	-0.984108	26.111100	-4.021020	9.740950
0.850000	-12.471000	276.423000	49.434000	0.232603	0.000000	-1.413820	-25.479400	-2.790800	9.006950	-1.961580	324.863000	-63.369300	0.227067	0.000000	-0.983871	26.308100	-4.128210	9.963910
0.855000	-11.427900	282.932000	50.905800	0.232173	0.000000	-1.414410	-25.911700	-2.737370	9.093230	-1.683400	330.043000	-64.309000	0.226328	0.000000	-0.983620	26.638300	-4.109050	9.846520
0.860000	-10.964500	286.609000	51.263100	0.231581	0.000000	-1.414840	-26.124800	-2.696470	9.037580	-1.453880	332.433000	-64.563200	0.226229	0.000000	-0.983855	26.905800	-4.379610	9.921590
0.865000	-10.619900	288.521000	51.037700	0.231371	0.000000	-1.416110	-25.935900	-2.572290	9.048250	-1.218490	336.545000	-65.322200	0.225844	0.000000	-0.983133	26.990700	-4.400020	9.898340
0.870000	-10.424600	291.946000	51.300400	0.230534	0.000000	-1.415580	-26.397000	-2.495510	8.916650	-1.066790	338.794000	-65.531000	0.225740	0.000000	-0.983012	27.127300	-4.438420	9.921910
0.875000	-10.659800	290.960000	51.285300	0.230076	0.000000	-1.415130	-26.442800	-2.449610	8.761670	-0.519076	337.004000	-65.881800	0.224765	0.000000	-0.983378	27.097400	-4.628670	9.577900
0.880000	-10.868800	295.425000	51.458700	0.230037	0.000000	-1.416360	-26.488300	-2.339220	8.905240	-0.022065	338.446000	-65.718800	0.224166	0.000000	-0.982530	26.917100	-4.747960	9.409600
